<svg xmlns="http://www.w3.org/2000/svg" xmlns:xlink="http://www.w3.org/1999/xlink" width="1920" height="1028.47" viewBox="0 0 1920 1028.47">
  <defs>
    <style>
      .cls-1 {
        fill-rule: evenodd;
        fill: url(#linear-gradient);
      }
    </style>
    <linearGradient id="linear-gradient" x1="1072.538" y1="7034.69" x2="352.396" y2="6006.22" gradientUnits="userSpaceOnUse">
      <stop offset="0" stop-color="#ede7f6"/>
      <stop offset="1" stop-color="#b388ff"/>
    </linearGradient>
  </defs>
  <path id="Section05_Shape" class="cls-1" d="M2000.27,6127.34c-91.28-82.87-211.55-129.28-333.44-119.91-252.98,19.46-474.77,242.74-741.958,289.43-194.681,34.01-394.112-28-599.165-89.58-202.58-60.83-429.287-122.46-651.034-70.44-187.138,43.9-409.756,215.79-415.948,436.59-6.873,245.11,270.008,376,473.144,385.52,194.617,9.12,383.647-56.93,561.837-106.87,226.051-63.35,450.08-103.29,658.2-61.57,182,36.48,345.182,134.75,509.242,194.51,165.13,60.15,347.93,79.22,495.19-20.84,174.18-118.35,253.31-397.47,186.24-612.63-27.98-89.76-78.43-166.21-142.31-224.21h0Z" transform="translate(-11 -6006.22)"/>
</svg>
