<svg xmlns="http://www.w3.org/2000/svg" viewBox="0 0 111.5 111.5">
  <defs/>
  <path fill="#212121" fill-rule="evenodd" d="M54.336 5.749c27.009 0 48.904 21.826 48.904 48.75 0 26.925-21.895 48.75-48.904 48.75-27.009 0-48.903-21.825-48.903-48.75 0-26.924 21.894-48.75 48.903-48.75z" opacity=".349"/>
  <path fill="none" stroke="#FFF" stroke-linecap="round" stroke-linejoin="round" stroke-width="5" d="M54.336 5.749c27.009 0 48.904 21.826 48.904 48.75 0 26.925-21.895 48.75-48.904 48.75-27.009 0-48.903-21.825-48.903-48.75 0-26.924 21.894-48.75 48.903-48.75z"/>
  <path fill="#FFF" fill-rule="evenodd" d="M49.21 85.934l28.204-28.8c1.432-1.461 1.432-3.828 0-5.289l-28.204-28.8c-.714-.731-1.875-.731-2.589 0l-2.59 2.644c-.714.73-.714 1.914 0 2.643l24.322 24.834c.715.73.715 1.916 0 2.644L44.031 80.646c-.714.73-.714 1.914 0 2.644l2.59 2.644c.714.731 1.875.731 2.589 0"/>
</svg>
