<svg id="homeIcon" xmlns="http://www.w3.org/2000/svg" viewBox="0 0 48 46"><title>home_icon</title><path id="secondary" d="M45,17H3a2,2,0,0,0-2,2V43a2,2,0,0,0,2,2H45a2,2,0,0,0,2-2V19A2,2,0,0,0,45,17ZM31,39a2,2,0,0,1-2,2H26V35H22v6H19a2,2,0,0,1-2-2V28l7-7,7,7Z" style="fill:#42a5f5"/><circle id="primary" cx="24" cy="5" r="4" style="fill:#90caf9"/><path id="primary-2" data-name="primary" d="M17,28V39a2,2,0,0,0,2,2h3V35h4v6h3a2,2,0,0,0,2-2V28l-7-7Z" style="fill:#90caf9"/><path id="stroke" d="M45,16H37.41l-8.7-8.71a1,1,0,0,0-.22-.14A4.86,4.86,0,0,0,29,5,5,5,0,0,0,19,5a4.86,4.86,0,0,0,.51,2.15,1,1,0,0,0-.22.14L10.59,16H3a3,3,0,0,0-3,3V43a3,3,0,0,0,3,3H45a3,3,0,0,0,3-3V19A3,3,0,0,0,45,16ZM24,2a3,3,0,1,1-3,3A3,3,0,0,1,24,2ZM46,43a1,1,0,0,1-1,1H3a1,1,0,0,1-1-1V19a1,1,0,0,1,1-1h8a1,1,0,0,0,.71-.29l9-9a4.91,4.91,0,0,0,6.62,0l9,9A1,1,0,0,0,37,18h8a1,1,0,0,1,1,1Z" style="fill:#474c54"/><path id="stroke-2" data-name="stroke" d="M17,18H31a1,1,0,0,0,0-2H17a1,1,0,0,0,0,2Z" style="fill:#474c54"/><path id="stroke-3" data-name="stroke" d="M31.71,27.29h0l-7-7a1,1,0,0,0-1.41,0h0l-7,7h0l-3,3a1,1,0,0,0,1.42,1.42L16,30.41V39a2.91,2.91,0,0,0,2.82,3H22a1,1,0,0,0,1-1V36h2v5a1,1,0,0,0,1,1h3a2.91,2.91,0,0,0,3-2.82V30.41l1.29,1.3a1,1,0,0,0,1.41,0h0a1,1,0,0,0,0-1.41h0ZM30,39a.91.91,0,0,1-.81,1H27V35a1,1,0,0,0-1-1H22a1,1,0,0,0-1,1v5H19a.91.91,0,0,1-1-.81A.61.61,0,0,1,18,39V28.41l6-6,6,6Z" style="fill:#474c54"/><path id="stroke-4" data-name="stroke" d="M22,30a1,1,0,0,0,1,1h2a1,1,0,0,0,0-2H23A1,1,0,0,0,22,30Z" style="fill:#474c54"/></svg>