<svg xmlns="http://www.w3.org/2000/svg" xmlns:xlink="http://www.w3.org/1999/xlink" width="660.281" height="1026.47" viewBox="0 0 660.281 1026.47">
  <defs>
    <style>
      .cls-1 {
        fill-rule: evenodd;
        fill: url(#linear-gradient);
      }
    </style>
    <linearGradient id="linear-gradient" x1="-616.482" y1="7011.5" x2="129.293" y2="8037.97" gradientUnits="userSpaceOnUse">
      <stop offset="0" stop-color="#64ffda"/>
      <stop offset="1" stop-color="#b2dfdb"/>
    </linearGradient>
  </defs>
  <path id="Section06_Shape" class="cls-1" d="M671.059,7583.85a220.484,220.484,0,0,0-2.679-24.88,252.677,252.677,0,0,0-6.74-30.21,231.905,231.905,0,0,0-23.735-53.69,223.637,223.637,0,0,0-41.191-49.94,194.858,194.858,0,0,0-25.461-18.89,175.583,175.583,0,0,0-28.5-14.38c-18.186-7.37-37.861-12.29-60.149-15.06-84.529-10.5-167.957,13.46-252.494,6.53-153.241-12.57-258.8-87.79-357.92-199.07-22.206-24.93-45.167-50.7-69.474-74.24a504.567,504.567,0,0,0-53.408-45.43c-18.88-13.8-36.472-24.55-53.781-32.87a249.217,249.217,0,0,0-25.227-10.25,180.537,180.537,0,0,0-24.431-6.68,187.972,187.972,0,0,0-23.828-2.96,141.58,141.58,0,0,0-22.353.28,177.518,177.518,0,0,0-22.375,3.61,153.774,153.774,0,0,0-19.125,5.62,213.383,213.383,0,0,0-20.855,9.11,208.41,208.41,0,0,0-19.469,10.92c-14.1,8.8-27.11,19.44-37.976,28.68-10.566,8.99-21.618,19.43-34.783,32.87-16.631,16.96-32.764,34.94-48.367,52.32-6.267,6.98-12.746,14.21-19.168,21.26-20.361,22.37-44.809,48.37-71.761,71.57-22.813,19.1-44.779,33.78-67.154,44.89-35.6,16.34-74.408,24.23-114.365,31.51-4.716.85-9.438,1.68-14.163,2.52-36.694,6.49-74.638,13.21-110.554,25.27-8.96,3.02-18.2,6.66-27.45,10.83a277.362,277.362,0,0,0-31.56,16.54,220.932,220.932,0,0,0-26.62,19.88,190.649,190.649,0,0,0-22.79,23.03c-4.34,5.21-8.39,11.03-11.63,15.7-3.21,4.62-6.27,9.38-9.36,14.55-6.11,10.26-11.49,22.05-16.93,37.1a194.049,194.049,0,0,0-8.4,30.89c-1.03,5.63-1.62,11.21-2.01,15.44-0.84,8.9-1.23,15.81-1.29,22.42-0.03,2.84.03,5.79,0.17,8.75a206.675,206.675,0,0,0,2.25,21.87,275.906,275.906,0,0,0,8.29,37.16,265.554,265.554,0,0,0,11.05,29.65,385.788,385.788,0,0,0,17.49,35.03c10.37,18.46,23.17,37.13,39.13,57.07a655.528,655.528,0,0,0,49.3,54.68c14.87,14.78,31.185,29.46,49.887,44.87,15.131,12.48,31.794,25.11,54.027,40.95,49.415,35.21,94.621,63.01,138.2,84.98a708,708,0,0,0,75.754,32.66,556.678,556.678,0,0,0,75.686,21.89,473.434,473.434,0,0,0,80.866,9.56,387.105,387.105,0,0,0,79.384-5.68c13.287-2.31,25.406-4.95,37.049-8.09a355.219,355.219,0,0,0,34.732-11.43c9.782-3.74,19.931-8.19,32.9-14.44,10.311-4.97,20.826-10.54,31.254-16.54,39.818-22.93,76.2-51.77,110.047-79.35q8.835-7.185,17.643-14.43c29.056-23.81,59.1-48.43,90.45-70.31,23.648-16.51,45.564-29.67,67-40.23a347.016,347.016,0,0,1,36.232-14.41,305.215,305.215,0,0,1,39.063-10.08,356.022,356.022,0,0,1,46.3-4.67,399.584,399.584,0,0,1,46.452,1.28c43.588,4.17,86.7,13.99,130.7,24.55l7.2,1.72c41.488,9.98,84.388,20.29,127.471,25.71a494.388,494.388,0,0,0,70.9,4.05,361.9,361.9,0,0,0,71.17-8.59c18.359-4.06,36.88-11.46,55.048-21.99a169.593,169.593,0,0,0,21.4-14.91,200.056,200.056,0,0,0,21.829-20.43,209.548,209.548,0,0,0,16.906-21.71,186.377,186.377,0,0,0,13.938-23.75,232.936,232.936,0,0,0,10.512-25.51,203.755,203.755,0,0,0,7.43-26.9,226.813,226.813,0,0,0,3.82-27.78,235.239,235.239,0,0,0,.655-28.44c-0.017-.51-0.039-1.03-0.062-1.55h0Z" transform="translate(-11 -7011.5)"/>
</svg>
