<svg xmlns="http://www.w3.org/2000/svg" viewBox="0 0 111.5 111.5">
  <defs/>
  <path fill="#212121" fill-rule="evenodd" d="M54.663 5.749c27.009 0 48.904 21.826 48.904 48.75 0 26.925-21.895 48.75-48.904 48.75-27.008 0-48.903-21.825-48.903-48.75 0-26.924 21.895-48.75 48.903-48.75z" opacity=".349"/>
  <path fill="none" stroke="#FFF" stroke-linecap="round" stroke-linejoin="round" stroke-width="5" d="M54.663 5.749c27.009 0 48.904 21.826 48.904 48.75 0 26.925-21.895 48.75-48.904 48.75-27.008 0-48.903-21.825-48.903-48.75 0-26.924 21.895-48.75 48.903-48.75z"/>
  <path fill="#FFF" fill-rule="evenodd" d="M59.761 23.036L31.557 51.837c-1.431 1.462-1.431 3.828 0 5.289l28.204 28.8c.715.73 1.875.73 2.589 0l2.59-2.644c.715-.73.715-1.914 0-2.644L40.618 55.804c-.714-.73-.714-1.915 0-2.643L64.94 28.325c.715-.73.715-1.914 0-2.644l-2.59-2.645c-.714-.73-1.874-.73-2.589 0"/>
</svg>
