<svg id="forme" xmlns="http://www.w3.org/2000/svg" xmlns:xlink="http://www.w3.org/1999/xlink" width="1920" height="6563.56" viewBox="0 0 1920 6563.56">
  <defs>
    <style>
      .cls-1, .cls-2, .cls-3, .cls-4, .cls-5, .cls-6 {
        fill-rule: evenodd;
      }

      .cls-1 {
        fill: url(#linear-gradient);
      }

      .cls-2 {
        fill: url(#linear-gradient-2);
      }

      .cls-3 {
        fill: url(#linear-gradient-3);
      }

      .cls-4 {
        fill: url(#linear-gradient-4);
      }

      .cls-5 {
        fill: url(#linear-gradient-5);
      }

      .cls-6 {
        fill: url(#linear-gradient-6);
      }
    </style>
    <linearGradient id="linear-gradient" x1="87.367" y1="2706" x2="1846.26" y2="1474.41" gradientUnits="userSpaceOnUse">
      <stop offset="0" stop-color="#d1c4e9"/>
      <stop offset="1" stop-color="#b388ff"/>
    </linearGradient>
    <linearGradient id="linear-gradient-2" x1="1996.342" y1="3631.78" x2="1128.092" y2="2763.53" gradientUnits="userSpaceOnUse">
      <stop offset="0" stop-color="#64ffda"/>
      <stop offset="1" stop-color="#e0f2f1"/>
    </linearGradient>
    <linearGradient id="linear-gradient-3" x1="730.378" y1="5416.28" x2="647.774" y2="3840.12" gradientUnits="userSpaceOnUse">
      <stop offset="0" stop-color="#ede7f6"/>
      <stop offset="1" stop-color="#b388ff"/>
    </linearGradient>
    <linearGradient id="linear-gradient-4" x1="51.738" y1="5301.19" x2="927.322" y2="5914.28" gradientUnits="userSpaceOnUse">
      <stop offset="0" stop-color="#64ffda"/>
      <stop offset="1" stop-color="#a7ffeb"/>
    </linearGradient>
    <linearGradient id="linear-gradient-5" x1="1072.538" y1="7034.69" x2="352.396" y2="6006.22" xlink:href="#linear-gradient-3"/>
    <linearGradient id="linear-gradient-6" x1="-616.482" y1="7011.5" x2="129.293" y2="8037.97" gradientUnits="userSpaceOnUse">
      <stop offset="0" stop-color="#64ffda"/>
      <stop offset="1" stop-color="#b2dfdb"/>
    </linearGradient>
  </defs>
  <path id="Section01_shape" class="cls-1" d="M20.795,1783.38c10.134-13.34,22.075-26.51,37.578-41.44a505.428,505.428,0,0,1,51.407-42.77c16.639-12.26,35.321-24.64,57.116-37.85,17.506-10.62,36.579-21.36,58.31-32.85,16.837-8.9,34.89-17.96,56.812-28.52,16.146-7.77,35.352-16.91,55.373-25.79,79.287-35.14,165.624-61.53,256.614-78.41,83.84-15.56,173.476-22.68,266.419-21.17,86.543,1.41,176.956,10.9,268.726,28.2a1547.79,1547.79,0,0,1,150.5,36.19,1344.536,1344.536,0,0,1,147.46,53.06c29.43,12.58,59.04,26.68,88.01,41.91,30.09,4.4,59.64,10.18,87.83,17.16,18.42,4.56,38.23,10.27,62.35,17.97,18.76,5.98,37.05,12.3,54.34,18.77,42.89,16.06,79.5,33.44,111.92,53.15,38.17,23.19,68.27,49.76,89.46,78.96a201.581,201.581,0,0,1,14.24,22.96,171.176,171.176,0,0,1,11.81,27.66,180.8,180.8,0,0,1,6.49,26.4,167.33,167.33,0,0,1,2.16,28.02c0.06,16.12-2.85,33.43-8.65,51.42-4.84,15.03-12.34,30.54-22.93,47.41-3.83,6.1-8.18,12.36-12.93,18.61-5.33,7.01-11.21,14.11-17.99,21.69a471,471,0,0,1-38.7,38.11c-27.72,24.63-57.51,46.2-85.57,65.84-15.6,10.92-31.54,21.91-46.96,32.54-16.6,11.45-33.77,23.29-50.56,35.07-36.62,25.69-79.07,56.94-116.31,93.98a467.06,467.06,0,0,0-32.27,36.18c-1.61,2.01-3.22,4.08-4.79,6.15a348.265,348.265,0,0,0-24.13,36.42c-4.47,8.02-8.56,16.11-12.17,24.05a105.444,105.444,0,0,0-5.71,16.43,157.6,157.6,0,0,0-3.33,20.5,200.767,200.767,0,0,0-.8,20.35c0.25,14.68,1.47,29.56,2.66,43.95,0.3,3.63.6,7.26,0.88,10.89,0.74,9.34,1.16,17.79,1.3,25.82a197.59,197.59,0,0,1-1.14,26.81,112.52,112.52,0,0,1-5.38,23.11,79.817,79.817,0,0,1-4.55,10.44,89.8,89.8,0,0,1-7.42,11.96c-0.17.23-.35,0.46-0.52,0.69a81.568,81.568,0,0,1-6.4,7.26c-2.47,2.57-5.15,5.12-7.95,7.59a122.5,122.5,0,0,1-18.35,13.04,182.419,182.419,0,0,1-20.23,10.33,206.581,206.581,0,0,1-23.82,8.49,346.3,346.3,0,0,1-51.92,10.93,533.683,533.683,0,0,1-56.25,4.5c-17.68.61-36.55,0.57-57.71-.1-30.71-.98-64.09-3.52-105.05-7.99-12.86-1.4-25.92-2.96-38.55-4.46l-1.86-.23c-18.04-2.15-34.77-4.51-51.14-7.21a897.737,897.737,0,0,1-112.307-25.9c-39.973-12.06-76.612-27.07-108.9-44.61a408.136,408.136,0,0,1-48.126-30.58,316.6,316.6,0,0,1-41.354-36.92,244.5,244.5,0,0,1-32.781-43.79,248.368,248.368,0,0,1-12.089-23.35,220.5,220.5,0,0,1-10.176-27.53,244.77,244.77,0,0,1-6.4-26.91c-0.957-5.24-1.624-10.41-2.1-14.34-0.273-2.26-.486-4.56-0.692-6.79l-0.053-.57a29.42,29.42,0,0,1-.224-4.42q0.066-3.03.161-6.06a535.678,535.678,0,0,1,7.639-74.61,555.432,555.432,0,0,1,17.522-71.82c1.972-6.29,4.111-12.48,5.753-17.18,2.2-6.28,4.217-12.69,6-18.34,3.943-12.53,7.786-25.81,11.748-40.59,0.412-1.54.819-3.09,1.218-4.64,2.671-10.69,6.107-24.82,8.986-39.31l-0.258-1.07-0.017-.08c-0.669-2.31-1.376-4.51-2.159-6.72a71.465,71.465,0,0,0-4.191-9.2c-1.031-1.7-2.073-3.3-3.185-4.89a55.292,55.292,0,0,0-5.385-6.42c-2.012-1.87-4.129-3.66-6.472-5.47a62.582,62.582,0,0,0-6.493-4.3,112.045,112.045,0,0,0-10.6-4.87,113.261,113.261,0,0,0-11.654-3.78c-21.739-5.28-44.462-6.47-66.436-7.61l-0.837-.05c-4.971-.26-10.022-0.57-14.907-0.87-5.93-.37-12.062-0.75-18.1-1.04-13.781-.66-27.8-1.1-41.363-1.52-4.285-.14-8.569-0.27-12.853-0.42-63.516-2.1-112.108-4.82-157.554-8.8-31.788-2.79-60.92-6.14-89.058-10.24-31.384-4.56-59.648-9.9-86.408-16.3-29.562-7.07-54.91-14.92-77.493-24.01a309.087,309.087,0,0,1-32.56-15.28,223.247,223.247,0,0,1-28.523-18.18,151.89,151.89,0,0,1-22.656-21.16,111.708,111.708,0,0,1-15.906-24.13,94.794,94.794,0,0,1-8.359-27.23,97.063,97.063,0,0,1-1.014-14.76,112.277,112.277,0,0,1,1.051-15.68,139.8,139.8,0,0,1,3.424-16.23,150.3,150.3,0,0,1,5.825-17.49A201.79,201.79,0,0,1-.522,1816.05a266.546,266.546,0,0,1,16.91-26.69c1.388-1.95,2.872-3.96,4.407-5.98h0Z" transform="translate(-11 -1474.41)"/>
  <path id="Section02_Shape" class="cls-2" d="M2143.62,2862.91a230.608,230.608,0,0,0-29.64-20.72,326.847,326.847,0,0,0-38.58-19.56c-12.26-5.33-25.83-10.44-41.49-15.63-12.58-4.17-26.16-8.19-41.54-12.3-11.91-3.19-24.61-6.3-39.97-9.79-11.31-2.57-24.76-5.56-38.68-8.27-55.13-10.72-113.48-14.9-173.42-12.41-55.23,2.29-112.93,10.75-171.5,25.12-54.54,13.39-110.38,32.43-165.97,56.6-30.95,13.45-61.25,28.45-90.05,44.56a878.584,878.584,0,0,0-85.74,54.77c-16.83,12.18-33.56,25.36-49.72,39.15-18.41,7.12-36.28,15.03-53.12,23.51-11,5.54-22.72,12-36.88,20.34-11.02,6.48-21.69,13.11-31.72,19.69-24.84,16.32-45.53,32.58-63.246,49.69-20.849,20.14-36.12,41.25-45.388,62.73a132.542,132.542,0,0,0-5.749,16.54,111.189,111.189,0,0,0-3.545,19.16,115.76,115.76,0,0,0-.361,17.59,106.458,106.458,0,0,0,15.364,49.18c5.191,8.78,12.134,17.48,21.225,26.6,3.288,3.29,6.926,6.61,10.813,9.87,4.368,3.66,9.1,7.28,14.455,11.09a304.581,304.581,0,0,0,29.882,18.45c21.03,11.53,42.92,20.84,63.46,29.18,11.41,4.63,23.05,9.27,34.31,13.75,12.12,4.82,24.66,9.81,36.95,14.82,26.8,10.92,58.08,24.5,86.89,42.49a303.7,303.7,0,0,1,25.54,18.16c1.3,1.04,2.61,2.11,3.9,3.19a224.267,224.267,0,0,1,20.42,19.49c3.97,4.42,7.7,8.93,11.11,13.42a67.382,67.382,0,0,1,5.94,9.54,101.212,101.212,0,0,1,5.01,12.45,126.721,126.721,0,0,1,3.39,12.72c1.93,9.3,3.26,18.86,4.55,28.11,0.33,2.34.65,4.67,0.99,7,0.86,6,1.79,11.39,2.84,16.48a126.267,126.267,0,0,0,4.52,16.74,72.127,72.127,0,0,0,6.68,13.81,51.505,51.505,0,0,0,4.36,5.93,56.336,56.336,0,0,0,6.39,6.47c0.14,0.12.28,0.24,0.43,0.36a54.467,54.467,0,0,0,5.07,3.66c1.93,1.26,3.98,2.48,6.11,3.64a78.783,78.783,0,0,0,13.45,5.57,117.9,117.9,0,0,0,14.26,3.6,134.98,134.98,0,0,0,16.27,1.92,225.012,225.012,0,0,0,34.39-.61,344.675,344.675,0,0,0,36.21-5.28c11.27-2.17,23.2-4.92,36.48-8.4,19.29-5.05,40.04-11.48,65.31-20.21,7.94-2.74,15.98-5.61,23.76-8.38l1.14-.41c11.11-3.96,21.35-7.87,31.32-11.94a584.744,584.744,0,0,0,67.36-32.56,377.892,377.892,0,0,0,62.55-43.87,264.575,264.575,0,0,0,26.1-26.24,205.075,205.075,0,0,0,20.92-29.26,158.941,158.941,0,0,0,14.53-32.36,160.848,160.848,0,0,0,4.33-16.48,142.837,142.837,0,0,0,2.54-18.83,159.61,159.61,0,0,0,.23-17.9c-0.14-3.45-.45-6.81-0.71-9.35-0.15-1.47-.34-2.95-0.52-4.38l-0.05-.37a17.886,17.886,0,0,0-.49-2.82c-0.31-1.27-.63-2.54-0.96-3.8a344.755,344.755,0,0,0-15.41-45.97,356.424,356.424,0,0,0-21.26-42.78c-2.14-3.68-4.37-7.28-6.08-10-2.28-3.65-4.46-7.4-6.39-10.71-4.27-7.34-8.58-15.16-13.18-23.91-0.48-.91-0.96-1.83-1.43-2.75-3.21-6.36-7.38-14.78-11.26-23.5l0.01-.72v-0.05c0.1-1.55.23-3.04,0.42-4.55a46.258,46.258,0,0,1,1.34-6.41c0.41-1.22.84-2.38,1.32-3.55a35.393,35.393,0,0,1,2.5-4.82c1.01-1.47,2.09-2.91,3.32-4.39a40.219,40.219,0,0,1,3.49-3.64,72.866,72.866,0,0,1,6.02-4.61,72.04,72.04,0,0,1,6.83-4.06c13-6.48,27.21-10.51,40.94-14.41l0.52-.14c3.11-.89,6.26-1.81,9.31-2.71,3.7-1.09,7.52-2.21,11.3-3.26,8.62-2.41,17.43-4.71,25.94-6.94q4.035-1.05,8.07-2.12c39.88-10.5,70.22-19.23,98.4-28.3,19.71-6.35,37.66-12.67,54.88-19.32,19.2-7.42,36.32-14.86,52.34-22.77a359.093,359.093,0,0,0,45.61-26.33,205.755,205.755,0,0,0,18.42-14.34,145.964,145.964,0,0,0,15.46-15.59,98.454,98.454,0,0,0,11.33-16.62,72.218,72.218,0,0,0,6.64-17.53,60.9,60.9,0,0,0,1.43-18.38,62.529,62.529,0,0,0-1.45-9.46,72.719,72.719,0,0,0-2.89-9.74,88.646,88.646,0,0,0-4.47-9.74,96.44,96.44,0,0,0-6.16-10.2,130.873,130.873,0,0,0-10.45-13.16,172.886,172.886,0,0,0-14.48-14.4c-1.16-1.03-2.38-2.08-3.64-3.13h0Z" transform="translate(-11 -1474.41)"/>
  <path id="Section03_Shape" class="cls-3" d="M-527.869,3896.67c118.4-60.59,256.7-75.05,380.99-30.97,257.934,91.49,425.973,386.45,691.042,510.29,193.135,90.24,418.268,81.83,649.137,75.45,228.08-6.31,481.5-6.64,697.75,109.96,182.49,98.41,365.88,340.08,310.12,571.73-61.9,257.17-387.08,315.49-601.29,268.21-205.22-45.31-383.44-167.31-554.92-269.48C827.429,5002.23,605.4,4897.57,376.938,4882.41c-199.791-13.26-397.387,43.11-585.065,59.14-188.884,16.14-384.6-15.48-509.749-161.13-148.034-172.29-151.792-485.2-21.34-690.36,54.42-85.59,128.494-150.99,211.347-193.39h0Z" transform="translate(-11 -1474.41)"/>
  <path id="Section04-Shape" class="cls-4" d="M-26.683,5742.61a127.721,127.721,0,0,0,5.132,13.64,147.493,147.493,0,0,0,8.195,16.05,135.3,135.3,0,0,0,21.189,26.82,129.986,129.986,0,0,0,30.48,22.15,112.6,112.6,0,0,0,17.1,6.94,100.751,100.751,0,0,0,18.154,3.96,136.614,136.614,0,0,0,36.086-.27c49.158-6.39,92.681-32.05,141.324-40.46,88.177-15.24,158.6,11.8,230.658,60.1,16.14,10.82,32.831,22.01,49.953,31.74a293.145,293.145,0,0,0,36.707,17.83,198.109,198.109,0,0,0,35.09,10.7,145.426,145.426,0,0,0,15.707,2.11,103.8,103.8,0,0,0,14.738.2,109.021,109.021,0,0,0,13.858-1.79,82.6,82.6,0,0,0,12.554-3.42,103.115,103.115,0,0,0,12.082-5.3,87.345,87.345,0,0,0,9.959-5.95,123.947,123.947,0,0,0,10.425-8.17,121.286,121.286,0,0,0,9.382-9,191.852,191.852,0,0,0,17.223-21.7c4.645-6.61,9.352-14.11,14.815-23.6,6.9-11.99,13.376-24.47,19.637-36.55,2.515-4.85,5.115-9.86,7.707-14.78,8.217-15.58,18.208-33.79,30.017-50.81,10.075-14.09,20.315-25.56,31.307-35.09,17.678-14.39,38.4-24.5,59.854-34.43q3.8-1.74,7.614-3.48c19.732-9.01,40.134-18.32,58.614-30.35,4.613-3.01,9.287-6.41,13.891-10.11a161.133,161.133,0,0,0,15.379-13.92,128.238,128.238,0,0,0,12.1-15.09,110.362,110.362,0,0,0,9.492-16.3c1.693-3.57,3.123-7.44,4.273-10.55,1.13-3.07,2.16-6.2,3.15-9.57a123.339,123.339,0,0,0,4.14-23.38,112.951,112.951,0,0,0,.24-18.64c-0.24-3.32-.72-6.56-1.12-9-0.82-5.14-1.6-9.1-2.53-12.83-0.4-1.61-.86-3.26-1.37-4.91a121.771,121.771,0,0,0-4.45-12,161.384,161.384,0,0,0-10.086-19.75,155.3,155.3,0,0,0-10.54-15.1,222.769,222.769,0,0,0-14.955-17.21,244.98,244.98,0,0,0-30.356-26.47,379.93,379.93,0,0,0-35.736-23.65c-10.531-6.17-21.863-12.07-34.645-18.04-10.343-4.83-21.57-9.52-36.4-15.22-32.97-12.65-62.488-21.74-90.243-27.78a412.512,412.512,0,0,0-47.44-7.38,323.736,323.736,0,0,0-45.834-1.32,275.092,275.092,0,0,0-46.957,6.4,225.019,225.019,0,0,0-43.9,14.76c-7.151,3.24-13.6,6.5-19.7,9.96a206.448,206.448,0,0,0-17.9,11.51c-4.968,3.53-10.039,7.52-16.44,12.93-5.086,4.31-10.2,8.97-15.2,13.88-19.1,18.73-35.4,40.29-50.458,60.77q-3.931,5.34-7.842,10.7c-12.906,17.66-26.251,35.92-40.731,52.83a299.449,299.449,0,0,1-31.9,32.44,206.181,206.181,0,0,1-18.317,13.41,179.4,179.4,0,0,1-20.545,11.37,207.056,207.056,0,0,1-25.412,9.37,231.15,231.15,0,0,1-26.36,6.05c-25.169,4-50.888,4.74-77.22,5.2l-4.308.07c-24.829.43-50.5,0.86-75.57,4.08a288.872,288.872,0,0,0-40.539,8.04,210.934,210.934,0,0,0-38.851,15.22A112.446,112.446,0,0,0-.148,5620.89a98.355,98.355,0,0,0-9.887,11.52,116.863,116.863,0,0,0-9.327,14.69,123.42,123.42,0,0,0-6.365,14.71,108.52,108.52,0,0,0-4.4,15.42,135.286,135.286,0,0,0-2.209,15.92,118.637,118.637,0,0,0-.272,16.25,132.153,132.153,0,0,0,1.892,16.22,137.144,137.144,0,0,0,3.77,16.13c0.085,0.28.172,0.57,0.26,0.86h0Z" transform="translate(-11 -1474.41)"/>
  <path id="Section05_Shape" class="cls-5" d="M2000.27,6127.34c-91.28-82.87-211.55-129.28-333.44-119.91-252.98,19.46-474.77,242.74-741.958,289.43-194.681,34.01-394.112-28-599.165-89.58-202.58-60.83-429.287-122.46-651.034-70.44-187.138,43.9-409.756,215.79-415.948,436.59-6.873,245.11,270.008,376,473.144,385.52,194.617,9.12,383.647-56.93,561.837-106.87,226.051-63.35,450.08-103.29,658.2-61.57,182,36.48,345.182,134.75,509.242,194.51,165.13,60.15,347.93,79.22,495.19-20.84,174.18-118.35,253.31-397.47,186.24-612.63-27.98-89.76-78.43-166.21-142.31-224.21h0Z" transform="translate(-11 -1474.41)"/>
  <path id="Section06_Shape" class="cls-6" d="M671.059,7583.85a220.484,220.484,0,0,0-2.679-24.88,252.677,252.677,0,0,0-6.74-30.21,231.905,231.905,0,0,0-23.735-53.69,223.637,223.637,0,0,0-41.191-49.94,194.858,194.858,0,0,0-25.461-18.89,175.583,175.583,0,0,0-28.5-14.38c-18.186-7.37-37.861-12.29-60.149-15.06-84.529-10.5-167.957,13.46-252.494,6.53-153.241-12.57-258.8-87.79-357.92-199.07-22.206-24.93-45.167-50.7-69.474-74.24a504.567,504.567,0,0,0-53.408-45.43c-18.88-13.8-36.472-24.55-53.781-32.87a249.217,249.217,0,0,0-25.227-10.25,180.537,180.537,0,0,0-24.431-6.68,187.972,187.972,0,0,0-23.828-2.96,141.58,141.58,0,0,0-22.353.28,177.518,177.518,0,0,0-22.375,3.61,153.774,153.774,0,0,0-19.125,5.62,213.383,213.383,0,0,0-20.855,9.11,208.41,208.41,0,0,0-19.469,10.92c-14.1,8.8-27.11,19.44-37.976,28.68-10.566,8.99-21.618,19.43-34.783,32.87-16.631,16.96-32.764,34.94-48.367,52.32-6.267,6.98-12.746,14.21-19.168,21.26-20.361,22.37-44.809,48.37-71.761,71.57-22.813,19.1-44.779,33.78-67.154,44.89-35.6,16.34-74.408,24.23-114.365,31.51-4.716.85-9.438,1.68-14.163,2.52-36.694,6.49-74.638,13.21-110.554,25.27-8.96,3.02-18.2,6.66-27.45,10.83a277.362,277.362,0,0,0-31.56,16.54,220.932,220.932,0,0,0-26.62,19.88,190.649,190.649,0,0,0-22.79,23.03c-4.34,5.21-8.39,11.03-11.63,15.7-3.21,4.62-6.27,9.38-9.36,14.55-6.11,10.26-11.49,22.05-16.93,37.1a194.049,194.049,0,0,0-8.4,30.89c-1.03,5.63-1.62,11.21-2.01,15.44-0.84,8.9-1.23,15.81-1.29,22.42-0.03,2.84.03,5.79,0.17,8.75a206.675,206.675,0,0,0,2.25,21.87,275.906,275.906,0,0,0,8.29,37.16,265.554,265.554,0,0,0,11.05,29.65,385.788,385.788,0,0,0,17.49,35.03c10.37,18.46,23.17,37.13,39.13,57.07a655.528,655.528,0,0,0,49.3,54.68c14.87,14.78,31.185,29.46,49.887,44.87,15.131,12.48,31.794,25.11,54.027,40.95,49.415,35.21,94.621,63.01,138.2,84.98a708,708,0,0,0,75.754,32.66,556.678,556.678,0,0,0,75.686,21.89,473.434,473.434,0,0,0,80.866,9.56,387.105,387.105,0,0,0,79.384-5.68c13.287-2.31,25.406-4.95,37.049-8.09a355.219,355.219,0,0,0,34.732-11.43c9.782-3.74,19.931-8.19,32.9-14.44,10.311-4.97,20.826-10.54,31.254-16.54,39.818-22.93,76.2-51.77,110.047-79.35q8.835-7.185,17.643-14.43c29.056-23.81,59.1-48.43,90.45-70.31,23.648-16.51,45.564-29.67,67-40.23a347.016,347.016,0,0,1,36.232-14.41,305.215,305.215,0,0,1,39.063-10.08,356.022,356.022,0,0,1,46.3-4.67,399.584,399.584,0,0,1,46.452,1.28c43.588,4.17,86.7,13.99,130.7,24.55l7.2,1.72c41.488,9.98,84.388,20.29,127.471,25.71a494.388,494.388,0,0,0,70.9,4.05,361.9,361.9,0,0,0,71.17-8.59c18.359-4.06,36.88-11.46,55.048-21.99a169.593,169.593,0,0,0,21.4-14.91,200.056,200.056,0,0,0,21.829-20.43,209.548,209.548,0,0,0,16.906-21.71,186.377,186.377,0,0,0,13.938-23.75,232.936,232.936,0,0,0,10.512-25.51,203.755,203.755,0,0,0,7.43-26.9,226.813,226.813,0,0,0,3.82-27.78,235.239,235.239,0,0,0,.655-28.44c-0.017-.51-0.039-1.03-0.062-1.55h0Z" transform="translate(-11 -1474.41)"/>
</svg>
