<svg xmlns="http://www.w3.org/2000/svg" xmlns:xlink="http://www.w3.org/1999/xlink" width="1000.81" height="613.09" viewBox="0 0 1000.81 613.09">
  <defs>
    <style>
      .cls-1 {
        fill-rule: evenodd;
        fill: url(#linear-gradient);
      }
    </style>
    <linearGradient id="linear-gradient" x1="51.738" y1="5301.19" x2="927.322" y2="5914.28" gradientUnits="userSpaceOnUse">
      <stop offset="0" stop-color="#64ffda"/>
      <stop offset="1" stop-color="#a7ffeb"/>
    </linearGradient>
  </defs>
  <path id="Section04-Shape" class="cls-1" d="M-26.683,5742.61a127.721,127.721,0,0,0,5.132,13.64,147.493,147.493,0,0,0,8.195,16.05,135.3,135.3,0,0,0,21.189,26.82,129.986,129.986,0,0,0,30.48,22.15,112.6,112.6,0,0,0,17.1,6.94,100.751,100.751,0,0,0,18.154,3.96,136.614,136.614,0,0,0,36.086-.27c49.158-6.39,92.681-32.05,141.324-40.46,88.177-15.24,158.6,11.8,230.658,60.1,16.14,10.82,32.831,22.01,49.953,31.74a293.145,293.145,0,0,0,36.707,17.83,198.109,198.109,0,0,0,35.09,10.7,145.426,145.426,0,0,0,15.707,2.11,103.8,103.8,0,0,0,14.738.2,109.021,109.021,0,0,0,13.858-1.79,82.6,82.6,0,0,0,12.554-3.42,103.115,103.115,0,0,0,12.082-5.3,87.345,87.345,0,0,0,9.959-5.95,123.947,123.947,0,0,0,10.425-8.17,121.286,121.286,0,0,0,9.382-9,191.852,191.852,0,0,0,17.223-21.7c4.645-6.61,9.352-14.11,14.815-23.6,6.9-11.99,13.376-24.47,19.637-36.55,2.515-4.85,5.115-9.86,7.707-14.78,8.217-15.58,18.208-33.79,30.017-50.81,10.075-14.09,20.315-25.56,31.307-35.09,17.678-14.39,38.4-24.5,59.854-34.43q3.8-1.74,7.614-3.48c19.732-9.01,40.134-18.32,58.614-30.35,4.613-3.01,9.287-6.41,13.891-10.11a161.133,161.133,0,0,0,15.379-13.92,128.238,128.238,0,0,0,12.1-15.09,110.362,110.362,0,0,0,9.492-16.3c1.693-3.57,3.123-7.44,4.273-10.55,1.13-3.07,2.16-6.2,3.15-9.57a123.339,123.339,0,0,0,4.14-23.38,112.951,112.951,0,0,0,.24-18.64c-0.24-3.32-.72-6.56-1.12-9-0.82-5.14-1.6-9.1-2.53-12.83-0.4-1.61-.86-3.26-1.37-4.91a121.771,121.771,0,0,0-4.45-12,161.384,161.384,0,0,0-10.086-19.75,155.3,155.3,0,0,0-10.54-15.1,222.769,222.769,0,0,0-14.955-17.21,244.98,244.98,0,0,0-30.356-26.47,379.93,379.93,0,0,0-35.736-23.65c-10.531-6.17-21.863-12.07-34.645-18.04-10.343-4.83-21.57-9.52-36.4-15.22-32.97-12.65-62.488-21.74-90.243-27.78a412.512,412.512,0,0,0-47.44-7.38,323.736,323.736,0,0,0-45.834-1.32,275.092,275.092,0,0,0-46.957,6.4,225.019,225.019,0,0,0-43.9,14.76c-7.151,3.24-13.6,6.5-19.7,9.96a206.448,206.448,0,0,0-17.9,11.51c-4.968,3.53-10.039,7.52-16.44,12.93-5.086,4.31-10.2,8.97-15.2,13.88-19.1,18.73-35.4,40.29-50.458,60.77q-3.931,5.34-7.842,10.7c-12.906,17.66-26.251,35.92-40.731,52.83a299.449,299.449,0,0,1-31.9,32.44,206.181,206.181,0,0,1-18.317,13.41,179.4,179.4,0,0,1-20.545,11.37,207.056,207.056,0,0,1-25.412,9.37,231.15,231.15,0,0,1-26.36,6.05c-25.169,4-50.888,4.74-77.22,5.2l-4.308.07c-24.829.43-50.5,0.86-75.57,4.08a288.872,288.872,0,0,0-40.539,8.04,210.934,210.934,0,0,0-38.851,15.22A112.446,112.446,0,0,0-.148,5620.89a98.355,98.355,0,0,0-9.887,11.52,116.863,116.863,0,0,0-9.327,14.69,123.42,123.42,0,0,0-6.365,14.71,108.52,108.52,0,0,0-4.4,15.42,135.286,135.286,0,0,0-2.209,15.92,118.637,118.637,0,0,0-.272,16.25,132.153,132.153,0,0,0,1.892,16.22,137.144,137.144,0,0,0,3.77,16.13c0.085,0.28.172,0.57,0.26,0.86h0Z" transform="translate(-11 -5301.19)"/>
</svg>
