<svg xmlns="http://www.w3.org/2000/svg" xmlns:xlink="http://www.w3.org/1999/xlink" width="1920" height="1231.59" viewBox="0 0 1920 1231.59">
  <defs>
    <style>
      .cls-1 {
        fill-rule: evenodd;
        fill: url(#linear-gradient);
      }
    </style>
    <linearGradient id="linear-gradient" x1="87.367" y1="2706" x2="1846.26" y2="1474.41" gradientUnits="userSpaceOnUse">
      <stop offset="0" stop-color="#d1c4e9"/>
      <stop offset="1" stop-color="#b388ff"/>
    </linearGradient>
  </defs>
  <path id="Section01_shape" class="cls-1" d="M20.795,1783.38c10.134-13.34,22.075-26.51,37.578-41.44a505.428,505.428,0,0,1,51.407-42.77c16.639-12.26,35.321-24.64,57.116-37.85,17.506-10.62,36.579-21.36,58.31-32.85,16.837-8.9,34.89-17.96,56.812-28.52,16.146-7.77,35.352-16.91,55.373-25.79,79.287-35.14,165.624-61.53,256.614-78.41,83.84-15.56,173.476-22.68,266.419-21.17,86.543,1.41,176.956,10.9,268.726,28.2a1547.79,1547.79,0,0,1,150.5,36.19,1344.536,1344.536,0,0,1,147.46,53.06c29.43,12.58,59.04,26.68,88.01,41.91,30.09,4.4,59.64,10.18,87.83,17.16,18.42,4.56,38.23,10.27,62.35,17.97,18.76,5.98,37.05,12.3,54.34,18.77,42.89,16.06,79.5,33.44,111.92,53.15,38.17,23.19,68.27,49.76,89.46,78.96a201.581,201.581,0,0,1,14.24,22.96,171.176,171.176,0,0,1,11.81,27.66,180.8,180.8,0,0,1,6.49,26.4,167.33,167.33,0,0,1,2.16,28.02c0.06,16.12-2.85,33.43-8.65,51.42-4.84,15.03-12.34,30.54-22.93,47.41-3.83,6.1-8.18,12.36-12.93,18.61-5.33,7.01-11.21,14.11-17.99,21.69a471,471,0,0,1-38.7,38.11c-27.72,24.63-57.51,46.2-85.57,65.84-15.6,10.92-31.54,21.91-46.96,32.54-16.6,11.45-33.77,23.29-50.56,35.07-36.62,25.69-79.07,56.94-116.31,93.98a467.06,467.06,0,0,0-32.27,36.18c-1.61,2.01-3.22,4.08-4.79,6.15a348.265,348.265,0,0,0-24.13,36.42c-4.47,8.02-8.56,16.11-12.17,24.05a105.444,105.444,0,0,0-5.71,16.43,157.6,157.6,0,0,0-3.33,20.5,200.767,200.767,0,0,0-.8,20.35c0.25,14.68,1.47,29.56,2.66,43.95,0.3,3.63.6,7.26,0.88,10.89,0.74,9.34,1.16,17.79,1.3,25.82a197.59,197.59,0,0,1-1.14,26.81,112.52,112.52,0,0,1-5.38,23.11,79.817,79.817,0,0,1-4.55,10.44,89.8,89.8,0,0,1-7.42,11.96c-0.17.23-.35,0.46-0.52,0.69a81.568,81.568,0,0,1-6.4,7.26c-2.47,2.57-5.15,5.12-7.95,7.59a122.5,122.5,0,0,1-18.35,13.04,182.419,182.419,0,0,1-20.23,10.33,206.581,206.581,0,0,1-23.82,8.49,346.3,346.3,0,0,1-51.92,10.93,533.683,533.683,0,0,1-56.25,4.5c-17.68.61-36.55,0.57-57.71-.1-30.71-.98-64.09-3.52-105.05-7.99-12.86-1.4-25.92-2.96-38.55-4.46l-1.86-.23c-18.04-2.15-34.77-4.51-51.14-7.21a897.737,897.737,0,0,1-112.307-25.9c-39.973-12.06-76.612-27.07-108.9-44.61a408.136,408.136,0,0,1-48.126-30.58,316.6,316.6,0,0,1-41.354-36.92,244.5,244.5,0,0,1-32.781-43.79,248.368,248.368,0,0,1-12.089-23.35,220.5,220.5,0,0,1-10.176-27.53,244.77,244.77,0,0,1-6.4-26.91c-0.957-5.24-1.624-10.41-2.1-14.34-0.273-2.26-.486-4.56-0.692-6.79l-0.053-.57a29.42,29.42,0,0,1-.224-4.42q0.066-3.03.161-6.06a535.678,535.678,0,0,1,7.639-74.61,555.432,555.432,0,0,1,17.522-71.82c1.972-6.29,4.111-12.48,5.753-17.18,2.2-6.28,4.217-12.69,6-18.34,3.943-12.53,7.786-25.81,11.748-40.59,0.412-1.54.819-3.09,1.218-4.64,2.671-10.69,6.107-24.82,8.986-39.31l-0.258-1.07-0.017-.08c-0.669-2.31-1.376-4.51-2.159-6.72a71.465,71.465,0,0,0-4.191-9.2c-1.031-1.7-2.073-3.3-3.185-4.89a55.292,55.292,0,0,0-5.385-6.42c-2.012-1.87-4.129-3.66-6.472-5.47a62.582,62.582,0,0,0-6.493-4.3,112.045,112.045,0,0,0-10.6-4.87,113.261,113.261,0,0,0-11.654-3.78c-21.739-5.28-44.462-6.47-66.436-7.61l-0.837-.05c-4.971-.26-10.022-0.57-14.907-0.87-5.93-.37-12.062-0.75-18.1-1.04-13.781-.66-27.8-1.1-41.363-1.52-4.285-.14-8.569-0.27-12.853-0.42-63.516-2.1-112.108-4.82-157.554-8.8-31.788-2.79-60.92-6.14-89.058-10.24-31.384-4.56-59.648-9.9-86.408-16.3-29.562-7.07-54.91-14.92-77.493-24.01a309.087,309.087,0,0,1-32.56-15.28,223.247,223.247,0,0,1-28.523-18.18,151.89,151.89,0,0,1-22.656-21.16,111.708,111.708,0,0,1-15.906-24.13,94.794,94.794,0,0,1-8.359-27.23,97.063,97.063,0,0,1-1.014-14.76,112.277,112.277,0,0,1,1.051-15.68,139.8,139.8,0,0,1,3.424-16.23,150.3,150.3,0,0,1,5.825-17.49A201.79,201.79,0,0,1-.522,1816.05a266.546,266.546,0,0,1,16.91-26.69c1.388-1.95,2.872-3.96,4.407-5.98h0Z" transform="translate(-11 -1474.41)"/>
</svg>
