<svg xmlns="http://www.w3.org/2000/svg" xmlns:xlink="http://www.w3.org/1999/xlink" width="1920" height="1576.16" viewBox="0 0 1920 1576.16">
  <defs>
    <style>
      .cls-1 {
        fill-rule: evenodd;
        fill: url(#linear-gradient);
      }
    </style>
    <linearGradient id="linear-gradient" x1="730.378" y1="5416.28" x2="647.774" y2="3840.12" gradientUnits="userSpaceOnUse">
      <stop offset="0" stop-color="#ede7f6"/>
      <stop offset="1" stop-color="#b388ff"/>
    </linearGradient>
  </defs>
  <path id="Section03_Shape" class="cls-1" d="M-527.869,3896.67c118.4-60.59,256.7-75.05,380.99-30.97,257.934,91.49,425.973,386.45,691.042,510.29,193.135,90.24,418.268,81.83,649.137,75.45,228.08-6.31,481.5-6.64,697.75,109.96,182.49,98.41,365.88,340.08,310.12,571.73-61.9,257.17-387.08,315.49-601.29,268.21-205.22-45.31-383.44-167.31-554.92-269.48C827.429,5002.23,605.4,4897.57,376.938,4882.41c-199.791-13.26-397.387,43.11-585.065,59.14-188.884,16.14-384.6-15.48-509.749-161.13-148.034-172.29-151.792-485.2-21.34-690.36,54.42-85.59,128.494-150.99,211.347-193.39h0Z" transform="translate(-11 -3840.12)"/>
</svg>
