<svg xmlns="http://www.w3.org/2000/svg" xmlns:xlink="http://www.w3.org/1999/xlink" width="739" height="364" viewBox="0 0 739 364">
  <defs>
    <style>
      .cls-1 {
        fill-rule: evenodd;
        fill: url(#linear-gradient);
        filter: url(#filter);
      }
    </style>
    <linearGradient id="linear-gradient" x1="376.057" y1="2090.97" x2="596.881" y2="2345" gradientUnits="userSpaceOnUse">
      <stop offset="-0.495" stop-color="#1de9b6"/>
      <stop offset="1.495" stop-color="#00bfa5"/>
    </linearGradient>
    <filter id="filter" x="117" y="2047" width="739" height="364" filterUnits="userSpaceOnUse">
      <feOffset result="offset" dy="11" in="SourceAlpha"/>
      <feGaussianBlur result="blur" stdDeviation="7.28"/>
      <feFlood result="flood" flood-opacity="0.16"/>
      <feComposite result="composite" operator="in" in2="blur"/>
      <feOffset result="offset-2" dy="28" in="SourceAlpha"/>
      <feGaussianBlur result="blur-2" stdDeviation="5.477"/>
      <feFlood result="flood-2" flood-opacity="0.24"/>
      <feComposite result="composite-2" operator="in" in2="blur-2"/>
      <feBlend result="blend" mode="multiply" in2="composite"/>
      <feBlend result="blend-2" in="SourceGraphic"/>
    </filter>
  </defs>
  <path id="addressBlock_shape" class="cls-1" d="M204.305,2312.55c17.394,21.19,40.388,33.72,63.829,32.37,49.625-2.86,81.1-20.56,136.054-34.12,42.287-10.44,102.989-11.9,149.392,6.26,45.551,17.83,92.365,22.53,145.716,9.73,45.139-10.84,100.927-58.58,101.707-122.54,0.865-70.94-69.552-106.97-118.354-108.5-46.435-1.47-89.527,6.6-128.637,15.54-52,11.88-97.649,19.5-142.625,18.35-38.492-.98-72.928-17.28-105.851-31.8-32.555-14.36-72.363-5.44-99.936,20.2-32.075,29.83-40.817,90.29-27.9,143.16,5.415,22.17,14.534,36.65,26.608,51.35h0Z" transform="translate(-117 -2047)"/>
</svg>
