<svg xmlns="http://www.w3.org/2000/svg" xmlns:xlink="http://www.w3.org/1999/xlink" width="993.875" height="868.25" viewBox="0 0 993.875 868.25">
  <defs>
    <style>
      .cls-1 {
        fill-rule: evenodd;
        fill: url(#linear-gradient);
      }
    </style>
    <linearGradient id="linear-gradient" x1="1996.342" y1="3631.78" x2="1128.092" y2="2763.53" gradientUnits="userSpaceOnUse">
      <stop offset="0" stop-color="#64ffda"/>
      <stop offset="1" stop-color="#e0f2f1"/>
    </linearGradient>
  </defs>
  <path id="Section02_Shape" class="cls-1" d="M2143.62,2862.91a230.608,230.608,0,0,0-29.64-20.72,326.847,326.847,0,0,0-38.58-19.56c-12.26-5.33-25.83-10.44-41.49-15.63-12.58-4.17-26.16-8.19-41.54-12.3-11.91-3.19-24.61-6.3-39.97-9.79-11.31-2.57-24.76-5.56-38.68-8.27-55.13-10.72-113.48-14.9-173.42-12.41-55.23,2.29-112.93,10.75-171.5,25.12-54.54,13.39-110.38,32.43-165.97,56.6-30.95,13.45-61.25,28.45-90.05,44.56a878.584,878.584,0,0,0-85.74,54.77c-16.83,12.18-33.56,25.36-49.72,39.15-18.41,7.12-36.28,15.03-53.12,23.51-11,5.54-22.72,12-36.88,20.34-11.02,6.48-21.69,13.11-31.72,19.69-24.84,16.32-45.53,32.58-63.246,49.69-20.849,20.14-36.12,41.25-45.388,62.73a132.542,132.542,0,0,0-5.749,16.54,111.189,111.189,0,0,0-3.545,19.16,115.76,115.76,0,0,0-.361,17.59,106.458,106.458,0,0,0,15.364,49.18c5.191,8.78,12.134,17.48,21.225,26.6,3.288,3.29,6.926,6.61,10.813,9.87,4.368,3.66,9.1,7.28,14.455,11.09a304.581,304.581,0,0,0,29.882,18.45c21.03,11.53,42.92,20.84,63.46,29.18,11.41,4.63,23.05,9.27,34.31,13.75,12.12,4.82,24.66,9.81,36.95,14.82,26.8,10.92,58.08,24.5,86.89,42.49a303.7,303.7,0,0,1,25.54,18.16c1.3,1.04,2.61,2.11,3.9,3.19a224.267,224.267,0,0,1,20.42,19.49c3.97,4.42,7.7,8.93,11.11,13.42a67.382,67.382,0,0,1,5.94,9.54,101.212,101.212,0,0,1,5.01,12.45,126.721,126.721,0,0,1,3.39,12.72c1.93,9.3,3.26,18.86,4.55,28.11,0.33,2.34.65,4.67,0.99,7,0.86,6,1.79,11.39,2.84,16.48a126.267,126.267,0,0,0,4.52,16.74,72.127,72.127,0,0,0,6.68,13.81,51.505,51.505,0,0,0,4.36,5.93,56.336,56.336,0,0,0,6.39,6.47c0.14,0.12.28,0.24,0.43,0.36a54.467,54.467,0,0,0,5.07,3.66c1.93,1.26,3.98,2.48,6.11,3.64a78.783,78.783,0,0,0,13.45,5.57,117.9,117.9,0,0,0,14.26,3.6,134.98,134.98,0,0,0,16.27,1.92,225.012,225.012,0,0,0,34.39-.61,344.675,344.675,0,0,0,36.21-5.28c11.27-2.17,23.2-4.92,36.48-8.4,19.29-5.05,40.04-11.48,65.31-20.21,7.94-2.74,15.98-5.61,23.76-8.38l1.14-.41c11.11-3.96,21.35-7.87,31.32-11.94a584.744,584.744,0,0,0,67.36-32.56,377.892,377.892,0,0,0,62.55-43.87,264.575,264.575,0,0,0,26.1-26.24,205.075,205.075,0,0,0,20.92-29.26,158.941,158.941,0,0,0,14.53-32.36,160.848,160.848,0,0,0,4.33-16.48,142.837,142.837,0,0,0,2.54-18.83,159.61,159.61,0,0,0,.23-17.9c-0.14-3.45-.45-6.81-0.71-9.35-0.15-1.47-.34-2.95-0.52-4.38l-0.05-.37a17.886,17.886,0,0,0-.49-2.82c-0.31-1.27-.63-2.54-0.96-3.8a344.755,344.755,0,0,0-15.41-45.97,356.424,356.424,0,0,0-21.26-42.78c-2.14-3.68-4.37-7.28-6.08-10-2.28-3.65-4.46-7.4-6.39-10.71-4.27-7.34-8.58-15.16-13.18-23.91-0.48-.91-0.96-1.83-1.43-2.75-3.21-6.36-7.38-14.78-11.26-23.5l0.01-.72v-0.05c0.1-1.55.23-3.04,0.42-4.55a46.258,46.258,0,0,1,1.34-6.41c0.41-1.22.84-2.38,1.32-3.55a35.393,35.393,0,0,1,2.5-4.82c1.01-1.47,2.09-2.91,3.32-4.39a40.219,40.219,0,0,1,3.49-3.64,72.866,72.866,0,0,1,6.02-4.61,72.04,72.04,0,0,1,6.83-4.06c13-6.48,27.21-10.51,40.94-14.41l0.52-.14c3.11-.89,6.26-1.81,9.31-2.71,3.7-1.09,7.52-2.21,11.3-3.26,8.62-2.41,17.43-4.71,25.94-6.94q4.035-1.05,8.07-2.12c39.88-10.5,70.22-19.23,98.4-28.3,19.71-6.35,37.66-12.67,54.88-19.32,19.2-7.42,36.32-14.86,52.34-22.77a359.093,359.093,0,0,0,45.61-26.33,205.755,205.755,0,0,0,18.42-14.34,145.964,145.964,0,0,0,15.46-15.59,98.454,98.454,0,0,0,11.33-16.62,72.218,72.218,0,0,0,6.64-17.53,60.9,60.9,0,0,0,1.43-18.38,62.529,62.529,0,0,0-1.45-9.46,72.719,72.719,0,0,0-2.89-9.74,88.646,88.646,0,0,0-4.47-9.74,96.44,96.44,0,0,0-6.16-10.2,130.873,130.873,0,0,0-10.45-13.16,172.886,172.886,0,0,0-14.48-14.4c-1.16-1.03-2.38-2.08-3.64-3.13h0Z" transform="translate(-937.125 -2763.53)"/>
</svg>
